<?xml version="1.0" standalone="no"?>
<!DOCTYPE svg PUBLIC "-//W3C//DTD SVG 20010904//EN"
 "http://www.w3.org/TR/2001/REC-SVG-20010904/DTD/svg10.dtd">
<svg version="1.0" xmlns="http://www.w3.org/2000/svg"
 width="700.000000pt" height="700.000000pt" viewBox="0 0 700.000000 700.000000"
 preserveAspectRatio="xMidYMid meet">
<metadata>
Created by potrace 1.14, written by Peter Selinger 2001-2017
</metadata>
<g transform="translate(0.000000,700.000000) scale(0.100000,-0.100000)"
fill="#000000" stroke="none">
<path d="M132 5558 l3 -983 2 977 3 978 2863 3 2862 2 -2867 3 -2868 2 2 -982z"/>
<path d="M5913 6523 c9 -2 23 -2 30 0 6 3 -1 5 -18 5 -16 0 -22 -2 -12 -5z"/>
<path d="M150 5555 l0 -965 3325 0 3325 0 0 504 c0 560 -4 608 -64 767 -120
320 -382 546 -736 637 -60 15 -305 16 -2957 19 l-2893 3 0 -965z"/>
<path d="M5978 6513 c6 -2 18 -2 25 0 6 3 1 5 -13 5 -14 0 -19 -2 -12 -5z"/>
<path d="M6028 6503 c7 -3 16 -2 19 1 4 3 -2 6 -13 5 -11 0 -14 -3 -6 -6z"/>
<path d="M6210 6440 c8 -5 20 -10 25 -10 6 0 3 5 -5 10 -8 5 -19 10 -25 10 -5
0 -3 -5 5 -10z"/>
<path d="M6250 6426 c0 -3 9 -10 20 -16 11 -6 20 -8 20 -6 0 3 -9 10 -20 16
-11 6 -20 8 -20 6z"/>
<path d="M6410 6326 c0 -2 8 -10 18 -17 15 -13 16 -12 3 4 -13 16 -21 21 -21
13z"/>
<path d="M6510 6235 c30 -30 57 -55 59 -55 3 0 -19 25 -49 55 -30 30 -57 55
-59 55 -3 0 19 -25 49 -55z"/>
<path d="M6580 6156 c0 -2 8 -10 18 -17 15 -13 16 -12 3 4 -13 16 -21 21 -21
13z"/>
<path d="M6670 6030 c6 -11 13 -20 16 -20 2 0 0 9 -6 20 -6 11 -13 20 -16 20
-2 0 0 -9 6 -20z"/>
<path d="M6730 5915 c0 -5 5 -17 10 -25 5 -8 10 -10 10 -5 0 6 -5 17 -10 25
-5 8 -10 11 -10 5z"/>
<path d="M6752 5865 c0 -5 6 -26 13 -45 7 -19 14 -28 14 -20 0 8 -6 29 -14 45
-7 17 -13 26 -13 20z"/>
<path d="M6781 5764 c0 -11 3 -14 6 -6 3 7 2 16 -1 19 -3 4 -6 -2 -5 -13z"/>
<path d="M6791 5724 c0 -11 3 -14 6 -6 3 7 2 16 -1 19 -3 4 -6 -2 -5 -13z"/>
<path d="M6802 5675 c0 -16 2 -22 5 -12 2 9 2 23 0 30 -3 6 -5 -1 -5 -18z"/>
<path d="M6813 5580 c0 -30 2 -43 4 -27 2 15 2 39 0 55 -2 15 -4 2 -4 -28z"/>
<path d="M3407 4459 c-354 -49 -652 -322 -739 -676 -27 -112 -29 -295 -4 -397
88 -363 375 -630 739 -687 95 -15 263 -6 360 20 295 77 541 321 627 621 28 96
37 272 21 376 -59 360 -325 644 -683 729 -82 19 -235 26 -321 14z m353 -108
c36 -11 71 -25 79 -30 10 -7 -12 -46 -100 -175 -85 -125 -115 -162 -120 -149
-3 10 -19 98 -35 196 -15 98 -31 170 -35 160 -3 -10 -21 -96 -40 -190 -18 -95
-36 -173 -39 -173 -3 0 -47 72 -99 160 -52 88 -96 159 -98 156 -2 -2 10 -82
26 -178 17 -96 31 -179 31 -186 0 -7 -64 39 -142 101 -175 138 -177 140 -151
96 11 -19 57 -94 102 -168 45 -73 81 -135 79 -136 -2 -2 -82 21 -178 51 -96
29 -179 52 -183 51 -4 -1 60 -54 142 -117 83 -63 149 -116 147 -118 -2 -2 -89
-10 -192 -18 -103 -8 -189 -16 -191 -18 -1 -1 80 -26 182 -56 102 -29 185 -56
185 -59 -1 -3 -78 -42 -172 -86 -93 -43 -166 -81 -160 -83 5 -1 90 4 187 13
98 8 180 13 183 11 2 -3 -54 -67 -126 -143 -72 -75 -130 -139 -128 -141 2 -2
81 35 175 82 94 48 171 82 171 78 0 -4 -31 -84 -70 -177 -38 -94 -70 -173 -70
-177 0 -4 59 56 132 135 72 78 133 144 136 147 3 3 2 -85 -1 -194 -3 -109 -2
-195 2 -190 5 5 39 87 76 181 38 95 69 172 71 170 1 -1 29 -76 62 -167 33 -91
64 -174 69 -185 5 -12 10 60 13 179 l5 199 128 -146 c71 -81 130 -147 132
-147 2 0 -28 82 -66 181 -38 100 -68 183 -67 185 2 1 79 -38 172 -87 94 -49
171 -88 172 -86 2 1 -55 67 -126 147 -71 79 -128 146 -126 147 1 1 88 -8 192
-21 104 -13 190 -22 192 -21 2 2 -73 43 -167 91 -94 49 -171 91 -171 94 0 3
48 18 108 33 168 43 263 69 260 73 -2 1 -84 10 -183 20 -99 9 -184 20 -188 24
-5 4 60 56 143 116 83 60 148 110 143 111 -4 2 -87 -19 -183 -46 -96 -26 -176
-47 -178 -46 -6 5 210 330 219 330 19 0 125 -144 163 -220 60 -123 79 -209 79
-360 0 -112 -4 -142 -27 -220 -84 -277 -293 -481 -571 -556 -106 -29 -288 -31
-390 -5 -252 65 -464 249 -560 484 -61 151 -72 378 -25 527 90 284 292 476
585 556 98 27 320 21 415 -10z m189 -84 c29 -18 72 -48 94 -68 l41 -36 -157
-116 c-87 -65 -159 -117 -161 -117 -3 0 78 337 89 369 6 16 22 11 94 -32z
m-384 -308 c8 -46 15 -87 15 -91 0 -5 -16 -8 -36 -8 -35 0 -36 1 -30 30 3 17
11 59 17 95 7 36 14 63 16 61 2 -2 10 -41 18 -87z m-117 -116 c-17 -7 -33 -11
-36 -8 -6 5 -31 140 -31 170 -1 11 21 -18 48 -65 l50 -84 -31 -13z m251 74
l-21 -85 -34 11 c-34 10 -34 11 -17 36 62 97 87 131 90 127 2 -2 -6 -42 -18
-89z m-388 -43 c38 -31 69 -59 69 -63 -1 -7 -50 -44 -54 -39 -16 21 -94 158
-90 158 3 0 36 -25 75 -56z m509 -16 c-22 -35 -45 -70 -50 -78 -8 -13 -13 -11
-35 11 l-26 26 68 51 c37 28 71 51 76 51 4 1 -11 -27 -33 -61z m-585 -91 c39
-12 71 -22 73 -23 2 -1 -4 -16 -13 -34 l-16 -31 -37 27 c-144 108 -144 103 -7
61z m725 19 c0 -6 -141 -108 -144 -104 -1 2 -10 15 -19 30 l-17 27 43 11 c23
6 62 18 87 25 25 8 46 14 48 14 1 1 2 -1 2 -3z m-694 -168 c-3 -17 -8 -33 -10
-36 -2 -2 -46 9 -98 25 l-93 28 65 6 c36 3 82 6 104 7 38 2 38 2 32 -30z m714
5 c20 -5 13 -9 -40 -23 -36 -9 -75 -20 -86 -24 -19 -6 -22 -2 -26 29 l-4 36
65 -6 c36 -3 77 -9 91 -12z m-708 -114 c6 -36 7 -36 -102 -43 l-85 -5 80 39
c44 22 85 40 91 40 7 0 14 -14 16 -31z m650 -26 l63 -34 -55 5 c-30 3 -64 6
-75 6 -36 0 -47 14 -36 43 12 30 13 30 103 -20z m-594 -98 c-2 -1 -41 -22 -88
-45 -95 -47 -95 -48 9 62 l45 47 18 -30 c11 -17 18 -32 16 -34z m582 -86 c0
-5 -145 66 -159 78 -3 1 6 14 19 28 l24 25 57 -62 c32 -35 58 -66 59 -69z
m-522 43 l29 -17 -65 -70 c-36 -39 -62 -61 -58 -50 12 35 61 155 63 155 2 0
15 -8 31 -18z m364 -75 c15 -39 28 -74 28 -77 -1 -3 -27 24 -60 60 l-59 64 27
18 c14 9 28 15 31 12 2 -2 17 -37 33 -77z m-243 26 c5 -4 -13 -57 -40 -118
l-18 -40 0 88 -1 87 28 -6 c15 -4 29 -9 31 -11z m111 -80 c0 -47 -2 -84 -4
-82 -11 12 -55 152 -50 160 3 5 16 9 30 9 24 0 24 -1 24 -87z"/>
<path d="M133 2043 c4 -614 3 -603 70 -781 122 -325 390 -559 747 -650 60 -15
304 -16 2967 -19 l2903 -3 0 1005 0 1005 -3346 0 -3345 0 4 -557z"/>
</g>
</svg>
