<?xml version="1.0" standalone="no"?>
<!DOCTYPE svg PUBLIC "-//W3C//DTD SVG 20010904//EN"
 "http://www.w3.org/TR/2001/REC-SVG-20010904/DTD/svg10.dtd">
<svg version="1.0" xmlns="http://www.w3.org/2000/svg"
 width="700.000000pt" height="700.000000pt" viewBox="0 0 700.000000 700.000000"
 preserveAspectRatio="xMidYMid meet">
<metadata>
Created by potrace 1.14, written by Peter Selinger 2001-2017
</metadata>
<g transform="translate(0.000000,700.000000) scale(0.100000,-0.100000)"
fill="#000000" stroke="none">
<path d="M160 5520 l0 -970 3355 0 3355 0 0 459 c0 252 -5 504 -10 560 -25
245 -119 444 -292 618 -128 131 -284 221 -468 272 l-95 26 -2922 3 -2923 2 0
-970z"/>
<path d="M3360 4365 c-353 -73 -623 -343 -701 -700 -20 -94 -16 -274 9 -378
99 -403 450 -680 862 -680 234 0 435 78 601 231 191 176 289 400 289 659 0
419 -298 782 -712 867 -92 19 -257 19 -348 1z m370 -91 c244 -62 453 -243 546
-472 47 -116 58 -180 58 -312 -2 -218 -69 -389 -213 -542 -172 -183 -376 -267
-625 -255 -135 6 -203 23 -321 82 -201 99 -345 269 -415 490 -34 106 -39 292
-11 407 78 329 337 567 676 622 56 9 240 -3 305 -20z"/>
<path d="M3548 4268 c-3 -7 -20 -93 -39 -190 -18 -97 -36 -175 -40 -173 -4 3
-49 77 -100 164 -51 88 -95 158 -97 156 -2 -2 10 -85 28 -185 18 -100 30 -183
28 -186 -3 -2 -72 49 -154 115 -82 65 -150 117 -152 116 -2 -1 42 -76 97 -166
55 -90 98 -165 96 -167 -2 -2 -79 19 -172 48 -92 28 -177 54 -188 57 -11 3 43
-43 120 -102 207 -159 209 -140 -15 -155 -105 -7 -187 -17 -183 -21 4 -4 80
-28 168 -53 88 -26 168 -49 178 -52 12 -4 -41 -34 -162 -91 -100 -48 -180 -87
-179 -88 2 -1 75 4 163 12 88 7 175 12 192 11 l32 -3 -129 -137 c-72 -76 -130
-140 -130 -143 0 -3 77 33 171 81 94 47 173 83 175 81 3 -3 -27 -82 -66 -177
-39 -95 -70 -174 -68 -176 2 -2 55 52 117 120 62 69 122 133 133 143 l21 18
-6 -200 c-4 -114 -2 -194 3 -185 7 13 114 280 134 335 10 27 12 22 76 -155 80
-221 74 -222 80 2 l5 197 125 -143 c69 -79 126 -141 128 -137 1 4 -27 83 -62
176 -35 94 -63 172 -61 174 2 2 78 -36 169 -83 90 -47 168 -86 171 -86 4 0
-50 63 -120 140 -70 78 -125 144 -122 147 4 3 88 -4 189 -15 100 -12 183 -20
185 -18 2 2 -76 43 -172 93 l-176 90 186 48 c102 27 185 52 185 55 0 3 -84 14
-187 24 -104 10 -189 19 -190 20 -2 1 69 54 156 117 88 63 158 115 157 116 -1
2 -85 -20 -185 -48 -101 -28 -185 -49 -187 -47 -2 2 33 60 78 129 110 170 129
199 125 199 -2 0 -73 -51 -158 -114 -85 -63 -155 -111 -156 -108 -2 4 15 90
36 192 22 101 39 186 37 187 -1 1 -49 -72 -106 -162 -63 -100 -107 -160 -111
-153 -3 7 -19 92 -34 188 -15 96 -28 176 -30 178 -1 2 -5 -3 -7 -10z m18 -394
c7 -49 14 -91 14 -94 0 -4 -16 -4 -36 -2 -31 4 -35 7 -30 26 3 11 11 54 18 93
6 40 13 71 15 69 3 -2 11 -44 19 -92z m133 -35 c-11 -51 -22 -95 -24 -97 -2
-2 -17 4 -34 13 l-31 16 37 57 c20 31 43 69 52 84 9 15 17 26 18 24 2 -1 -6
-45 -18 -97z m-241 -30 l22 -36 -35 -10 c-39 -12 -34 -21 -55 85 -20 103 -17
101 68 -39z m-104 -96 l-28 -22 -21 32 c-12 18 -35 54 -51 82 l-29 50 78 -60
78 -60 -27 -22z m485 90 c-13 -21 -37 -59 -54 -85 l-32 -48 -26 28 -27 28 77
57 c43 31 79 56 81 57 2 0 -7 -17 -19 -37z m-551 -138 c10 -4 9 -11 -3 -35
l-16 -30 -74 56 c-41 31 -75 58 -75 59 0 3 138 -38 168 -50z m597 -24 c-79
-58 -80 -58 -92 -36 -23 43 -20 47 62 70 44 13 87 24 95 24 8 1 -22 -25 -65
-58z m-633 -111 c-2 -16 -7 -30 -9 -30 -3 0 -42 10 -86 22 -92 25 -83 35 34
37 l66 1 -5 -30z m713 11 l50 -6 -97 -26 c-54 -14 -98 -22 -98 -19 0 4 -3 21
-6 38 l-6 31 53 -5 c30 -4 77 -9 104 -13z m-707 -120 l10 -28 -51 -7 c-29 -3
-68 -6 -87 -5 -34 0 -32 2 35 35 38 19 73 34 76 34 4 0 12 -13 17 -29z m657
-17 c44 -25 69 -43 55 -40 -14 2 -58 8 -98 12 -69 6 -73 8 -68 28 3 11 6 27 6
34 0 20 22 14 105 -34z m-595 -104 c0 -6 -146 -80 -157 -80 -4 0 22 29 57 65
l65 65 17 -22 c10 -13 18 -25 18 -28z m506 8 c22 -24 51 -56 64 -72 l25 -28
-75 37 c-102 51 -103 52 -82 81 9 13 19 24 22 24 3 0 24 -19 46 -42z m-435
-96 c-27 -37 -105 -110 -99 -92 3 8 18 45 33 82 l28 67 29 -15 29 -15 -20 -27z
m358 -23 c17 -45 30 -83 28 -85 -1 -2 -29 27 -60 64 l-57 67 22 17 c13 10 26
18 30 18 3 0 20 -37 37 -81z m-253 23 c20 -7 20 -8 -12 -87 l-33 -80 -1 88 c0
91 1 93 46 79z m124 -84 l-1 -93 -29 79 c-35 94 -35 93 -12 99 41 11 42 10 42
-85z"/>
<path d="M132 1933 l3 -558 28 -90 c117 -380 405 -648 782 -726 87 -18 198
-19 3008 -19 l2917 0 0 975 0 975 -3370 0 -3371 0 3 -557z"/>
</g>
</svg>
