<?xml version="1.0" encoding="utf-8"?>
<!-- Generator: Adobe Illustrator 28.2.0, SVG Export Plug-In . SVG Version: 6.00 Build 0)  -->
<svg version="1.1" id="Layer_1" xmlns="http://www.w3.org/2000/svg" xmlns:xlink="http://www.w3.org/1999/xlink" x="0px" y="0px"
	 viewBox="0 0 512 512" style="enable-background:new 0 0 512 512;" xml:space="preserve">
<style type="text/css">
	.st0{fill:#E78900;stroke:#FFFFFF;stroke-width:2;stroke-miterlimit:10;}
	.st1{stroke:#FFFFFF;stroke-width:2;stroke-miterlimit:10;}
	.st2{fill:#FFFFFF;stroke:#FFFFFF;stroke-miterlimit:10;}
	.st3{stroke:#FFFFFF;stroke-miterlimit:10;}
	.st4{fill:#2DA200;stroke:#FFFFFF;stroke-miterlimit:10;}
	.st5{fill:#FFFFFF;stroke:#000073;stroke-width:6;stroke-miterlimit:10;}
	.st6{fill:#FFFFFF;stroke:#000073;stroke-width:4;stroke-miterlimit:10;}
	.st7{fill:#0F0045;stroke:#000073;stroke-width:5.4208;stroke-miterlimit:10;}
</style>
<g>
	<path class="st0" d="M10,180.9V35.6h418c42,0,76.1,34.2,76.1,76.1V181H10V180.9z"/>
	<path class="st1" d="M428,36.1c41.7,0,75.5,33.8,75.5,75.5v68.7h-493V36.1H428 M428,35H9.4v146.5h495.3v-69.9
		C504.7,69.4,470.3,35,428,35L428,35z"/>
</g>
<g>
	<rect x="8.9" y="182" class="st2" width="494.1" height="145.4"/>
	<path class="st3" d="M502.5,182.6v144.2H9.5V182.6H502.5 M503.6,181.5H8.4V328h495.3L503.6,181.5L503.6,181.5z"/>
</g>
<g>
	<path class="st4" d="M84,474c-42,0-76.1-34.2-76.1-76.1v-69.2H504V474H84z"/>
	<path class="st3" d="M503.5,329.2v144.2H84c-41.7,0-75.5-33.8-75.5-75.5v-68.7H503.5 M504.7,328H7.3v69.9
		c0,42.3,34.4,76.7,76.7,76.7h420.7V328L504.7,328z"/>
</g>
<circle class="st5" cx="258.4" cy="256.5" r="62"/>
<polygon class="st6" points="249.7,302 250.2,277.8 233.7,295.6 242.9,273.2 221.2,283.8 237.8,266.2 213.7,268.2 235.6,257.9 
	212.4,251.1 236.5,249.3 217.3,234.6 240.5,241.7 227.9,221 246.9,236 242.7,212.1 255,233 259.7,209.2 263.6,233.1 276.6,212.6 
	271.6,236.3 291.1,221.9 277.9,242.2 301.2,235.8 281.6,250 305.7,252.4 282.3,258.6 303.9,269.6 279.8,266.8 296,284.9 
	274.5,273.6 283.1,296.3 267.1,278 266.9,302.3 258.6,279.5 "/>
<circle class="st7" cx="258.4" cy="256.5" r="18"/>
</svg>
