<?xml version="1.0" encoding="utf-8"?>
<!-- Generator: Adobe Illustrator 28.2.0, SVG Export Plug-In . SVG Version: 6.00 Build 0)  -->
<svg version="1.1" id="Layer_1" xmlns="http://www.w3.org/2000/svg" xmlns:xlink="http://www.w3.org/1999/xlink" x="0px" y="0px"
	 viewBox="0 0 512 512" style="enable-background:new 0 0 512 512;" xml:space="preserve">
<style type="text/css">
	.st0{fill:#E78900;stroke:#FFFFFF;stroke-width:0.75;stroke-miterlimit:10;}
	.st1{stroke:#FFFFFF;stroke-width:0.75;stroke-miterlimit:10;}
	.st2{fill:#FFFFFF;stroke:#FFFFFF;stroke-width:2;stroke-miterlimit:10;}
	.st3{stroke:#FFFFFF;stroke-width:2;stroke-miterlimit:10;}
	.st4{fill:#2DA200;stroke:#2DA200;stroke-width:0.75;stroke-miterlimit:10;}
	.st5{stroke:#2DA200;stroke-width:0.75;stroke-miterlimit:10;}
	.st6{fill:#FFFFFF;stroke:#000073;stroke-width:6;stroke-miterlimit:10;}
	.st7{fill:#FFFFFF;stroke:#000073;stroke-width:4;stroke-miterlimit:10;}
	.st8{fill:#0F0045;stroke:#000073;stroke-width:5.4208;stroke-miterlimit:10;}
</style>
<g>
	<path class="st0" d="M10,177.8V34.1h413.5c41.5,0,75.3,33.8,75.3,75.3V178L10,177.8L10,177.8z"/>
	<path class="st1" d="M423.5,34.6c41.2,0,74.7,33.4,74.7,74.7v68H10.5V34.6H423.5 M423.5,33.5H9.4v144.9h490v-69.1
		C499.3,67.5,465.3,33.5,423.5,33.5L423.5,33.5z"/>
</g>
<g>
	<rect x="10.3" y="178.6" class="st2" width="487.4" height="144.1"/>
	<path class="st3" d="M497.2,179.2v142.9H10.9V179.2H497.2 M498.3,178.1H9.8v145.2h488.6L498.3,178.1L498.3,178.1z"/>
</g>
<g>
	<path class="st4" d="M85.1,468c-41.3,0-74.7-34.1-74.7-75.9V323h487.3v145H85.1z"/>
	<path class="st5" d="M497.2,323.4v143.9H85.1c-41,0-74.2-33.7-74.2-75.3v-68.6H497.2 M498.4,322.3H9.8V392
		c0,42.2,33.8,76.5,75.3,76.5h413.3V322.3L498.4,322.3z"/>
</g>
<circle class="st6" cx="258.4" cy="250.3" r="62"/>
<polygon class="st7" points="249.7,295.8 250.2,271.6 233.7,289.5 242.9,267 221.2,277.6 237.8,260 213.7,262 235.6,251.7 
	212.4,244.9 236.5,243.1 217.3,228.4 240.5,235.5 227.9,214.8 246.9,229.8 242.7,205.9 255,226.8 259.7,203 263.6,226.9 
	277.6,206.4 271.6,230.1 291.1,215.7 277.9,236 301.2,229.6 281.6,243.8 305.7,246.2 282.3,252.4 303.9,263.5 279.8,260.6 
	296,278.8 274.5,267.5 283.1,290.1 267.1,271.8 266.9,296.1 258.6,273.3 "/>
<circle class="st8" cx="259.4" cy="250.3" r="18"/>
</svg>
